<?xml version="1.0"?><svg xmlns="http://www.w3.org/2000/svg" xmlns:xlink="http://www.w3.org/1999/xlink" viewBox="156.13 170.01 61.29 57.48" preserveAspectRatio="xMidYMid" width="100%" height="100%"><clipPath id="24"><rect x="0.5" y="0.5" width="539" height="719" /></clipPath><g id="drawing"><rect x="156.13" y="170.01" width="100%" height="100%" fill="rgb(255, 255, 255)" /><g id="page" clip-path="url(#24)"><g id="Solid"><path d="M161.69 201.95 L161.69 201.95 L162.51 201.66 L163.33 201.37 L187.21 208.16 L187.22 208.68 L187.23 209.2 Z" stroke="rgb(0, 0, 0)" stroke-width="0" fill-rule="evenodd" stroke-linejoin="miter" fill="rgb(0, 0, 0)" shape-rendering="geometricPrecision" /></g><g id="Solid"><path d="M187.23 209.2 L187.23 209.2 L187.22 208.68 L187.21 208.16 L210.17 200.77 L211.04 201.02 L211.91 201.27 Z" stroke="rgb(0, 0, 0)" stroke-width="0" fill-rule="evenodd" stroke-linejoin="miter" fill="rgb(0, 0, 0)" shape-rendering="geometricPrecision" /></g><g id="Solid"><path d="M211.91 201.27 L211.91 201.27 L211.04 201.02 L210.17 200.77 L200.81 189.76 L201.04 189.26 L201.27 188.76 Z" stroke="rgb(0, 0, 0)" stroke-width="0" fill-rule="evenodd" stroke-linejoin="miter" fill="rgb(0, 0, 0)" shape-rendering="geometricPrecision" /></g><g id="Solid"><path d="M201.27 188.76 L201.27 188.76 L201.04 189.26 L200.81 189.76 L171.31 190.16 L171.05 189.66 L170.79 189.16 Z" stroke="rgb(0, 0, 0)" stroke-width="0" fill-rule="evenodd" stroke-linejoin="miter" fill="rgb(0, 0, 0)" shape-rendering="geometricPrecision" /></g><g id="Solid"><path d="M170.79 189.16 L170.79 189.16 L171.05 189.66 L171.31 190.16 L163.33 201.37 L162.51 201.66 L161.69 201.95 Z" stroke="rgb(0, 0, 0)" stroke-width="0" fill-rule="evenodd" stroke-linejoin="miter" fill="rgb(0, 0, 0)" shape-rendering="geometricPrecision" /></g><g id="Orbital17"><g><defs><radialGradient id="defaultShaded17" gradientUnits="objectBoundingBox" cx=".5" cy=".5" r="0.6" fx=".33" fy=".25"><stop offset="0%" stop-color="rgb(255, 255, 255)" /><stop offset="25%" stop-color="rgb(255, 255, 255)" /><stop offset="80%" stop-color="rgb(64, 64, 64)" /><stop offset="90%" stop-color="rgb(0, 0, 0)" /><stop offset="100%" stop-color="rgb(0, 0, 0)" /></radialGradient></defs><path d="M171.05 189.66 C168.24 189.66 165.81 180.48 165.81 177.64 C165.81 174.18 166.55 171.66 171.05 171.66 C175.55 171.66 176.29 174.18 176.29 177.64 C176.29 180.48 173.86 189.66 171.05 189.66 Z" stroke="rgb(0, 0, 0)" stroke-width="1" fill-rule="evenodd" stroke-linejoin="bevel" fill="url(#defaultShaded17)" shape-rendering="geometricPrecision" /></g><path d="M171.05 189.66 C173.86 189.66 176.29 198.84 176.29 201.68 C176.29 205.14 175.55 207.66 171.05 207.66 C166.55 207.66 165.81 205.14 165.81 201.68 C165.81 198.84 168.24 189.66 171.05 189.66 Z" stroke="rgb(0, 0, 0)" stroke-width="1" fill-rule="evenodd" stroke-linejoin="bevel" fill="rgb(255, 255, 255)" shape-rendering="geometricPrecision" /></g><g id="Orbital18"><g><defs><radialGradient id="defaultShaded18" gradientUnits="objectBoundingBox" cx=".5" cy=".5" r="0.6" fx=".33" fy=".25"><stop offset="0%" stop-color="rgb(255, 255, 255)" /><stop offset="25%" stop-color="rgb(255, 255, 255)" /><stop offset="80%" stop-color="rgb(64, 64, 64)" /><stop offset="90%" stop-color="rgb(0, 0, 0)" /><stop offset="100%" stop-color="rgb(0, 0, 0)" /></radialGradient></defs><path d="M201.04 189.26 C198.23 189.26 195.8 180.08 195.8 177.24 C195.8 173.78 196.54 171.26 201.04 171.26 C205.54 171.26 206.28 173.78 206.28 177.24 C206.28 180.08 203.85 189.26 201.04 189.26 Z" stroke="rgb(0, 0, 0)" stroke-width="1" fill-rule="evenodd" stroke-linejoin="bevel" fill="url(#defaultShaded18)" shape-rendering="geometricPrecision" /></g><path d="M201.04 189.26 C203.85 189.26 206.28 198.44 206.28 201.28 C206.28 204.74 205.54 207.26 201.04 207.26 C196.54 207.26 195.8 204.74 195.8 201.28 C195.8 198.44 198.23 189.26 201.04 189.26 Z" stroke="rgb(0, 0, 0)" stroke-width="1" fill-rule="evenodd" stroke-linejoin="bevel" fill="rgb(255, 255, 255)" shape-rendering="geometricPrecision" /></g><g id="Orbital19"><g><defs><radialGradient id="defaultShaded19" gradientUnits="objectBoundingBox" cx=".5" cy=".5" r="0.6" fx=".33" fy=".25"><stop offset="0%" stop-color="rgb(255, 255, 255)" /><stop offset="25%" stop-color="rgb(255, 255, 255)" /><stop offset="80%" stop-color="rgb(64, 64, 64)" /><stop offset="90%" stop-color="rgb(0, 0, 0)" /><stop offset="100%" stop-color="rgb(0, 0, 0)" /></radialGradient></defs><path d="M211.04 201.02 C208.23 201.02 205.8 191.84 205.8 189 C205.8 185.54 206.54 183.02 211.04 183.02 C215.54 183.02 216.28 185.54 216.28 189 C216.28 191.84 213.85 201.02 211.04 201.02 Z" stroke="rgb(0, 0, 0)" stroke-width="1" fill-rule="evenodd" stroke-linejoin="bevel" fill="url(#defaultShaded19)" shape-rendering="geometricPrecision" /></g><path d="M211.04 201.02 C213.85 201.02 216.28 210.2 216.28 213.04 C216.28 216.5 215.54 219.02 211.04 219.02 C206.54 219.02 205.8 216.5 205.8 213.04 C205.8 210.2 208.23 201.02 211.04 201.02 Z" stroke="rgb(0, 0, 0)" stroke-width="1" fill-rule="evenodd" stroke-linejoin="bevel" fill="rgb(255, 255, 255)" shape-rendering="geometricPrecision" /></g><g id="Orbital21"><g><defs><radialGradient id="defaultShaded21" gradientUnits="objectBoundingBox" cx=".5" cy=".5" r="0.6" fx=".33" fy=".25"><stop offset="0%" stop-color="rgb(255, 255, 255)" /><stop offset="25%" stop-color="rgb(255, 255, 255)" /><stop offset="80%" stop-color="rgb(64, 64, 64)" /><stop offset="90%" stop-color="rgb(0, 0, 0)" /><stop offset="100%" stop-color="rgb(0, 0, 0)" /></radialGradient></defs><path d="M187.22 208.68 C184.41 208.68 181.98 199.5 181.98 196.66 C181.98 193.2 182.72 190.68 187.22 190.68 C191.72 190.68 192.46 193.2 192.46 196.66 C192.46 199.5 190.03 208.68 187.22 208.68 Z" stroke="rgb(0, 0, 0)" stroke-width="1" fill-rule="evenodd" stroke-linejoin="bevel" fill="url(#defaultShaded21)" shape-rendering="geometricPrecision" /></g><path d="M187.22 208.68 C190.03 208.68 192.46 217.86 192.46 220.7 C192.46 224.16 191.72 226.68 187.22 226.68 C182.72 226.68 181.98 224.16 181.98 220.7 C181.98 217.86 184.41 208.68 187.22 208.68 Z" stroke="rgb(0, 0, 0)" stroke-width="1" fill-rule="evenodd" stroke-linejoin="bevel" fill="rgb(255, 255, 255)" shape-rendering="geometricPrecision" /></g><g id="Orbital22"><g><defs><radialGradient id="defaultShaded22" gradientUnits="objectBoundingBox" cx=".5" cy=".5" r="0.6" fx=".33" fy=".25"><stop offset="0%" stop-color="rgb(255, 255, 255)" /><stop offset="25%" stop-color="rgb(255, 255, 255)" /><stop offset="80%" stop-color="rgb(64, 64, 64)" /><stop offset="90%" stop-color="rgb(0, 0, 0)" /><stop offset="100%" stop-color="rgb(0, 0, 0)" /></radialGradient></defs><path d="M162.51 201.66 C159.7 201.66 157.27 192.48 157.27 189.64 C157.27 186.18 158.01 183.66 162.51 183.66 C167.01 183.66 167.75 186.18 167.75 189.64 C167.75 192.48 165.32 201.66 162.51 201.66 Z" stroke="rgb(0, 0, 0)" stroke-width="1" fill-rule="evenodd" stroke-linejoin="bevel" fill="url(#defaultShaded22)" shape-rendering="geometricPrecision" /></g><path d="M162.51 201.66 C165.32 201.66 167.75 210.84 167.75 213.68 C167.75 217.14 167.01 219.66 162.51 219.66 C158.01 219.66 157.27 217.14 157.27 213.68 C157.27 210.84 159.7 201.66 162.51 201.66 Z" stroke="rgb(0, 0, 0)" stroke-width="1" fill-rule="evenodd" stroke-linejoin="bevel" fill="rgb(255, 255, 255)" shape-rendering="geometricPrecision" /></g></g></g></svg>